<svg id="Capa_1" xmlns="http://www.w3.org/2000/svg" viewBox="0 0 512 512"><style>.st0{fill:#3f093b}.st1{fill:#dc365f}</style><path class="st0" d="M150.6 39.6c0-13.1-10.7-23.7-23.7-23.7h-2.6c-13.1 0-23.7 10.7-23.7 23.7v140.1h50.1V39.6zM399.5 39.6c0-13.1-10.7-23.7-23.7-23.7h-2.6c-13.1 0-23.7 10.7-23.7 23.7v140.1h50.1V39.6z"/><path class="st1" d="M198.5 459.1h102.9v37.1H198.5zM422.3 195.5H77.8c-9.7 0-17.5 7.9-17.5 17.5v134.9c0 52.6 42.8 95.3 95.3 95.3h188.9c52.6 0 95.3-42.8 95.3-95.3V213c0-9.6-7.9-17.5-17.5-17.5zM250 381.8c-37.1 0-67.3-30.2-67.3-67.3s30.2-67.3 67.3-67.3 67.3 30.2 67.3 67.3c0 37.1-30.2 67.3-67.3 67.3z"/><path class="st0" d="M422.3 179.7h-6.9V39.6c0-21.8-17.7-39.6-39.6-39.6h-2.6c-21.8 0-39.6 17.7-39.6 39.6v140.1H166.4V39.6c0-21.8-17.7-39.6-39.6-39.6h-2.6c-21.8 0-39.6 17.7-39.6 39.6v140.1h-6.9c-18.4 0-33.3 15-33.3 33.3v134.9c0 61.3 49.9 111.1 111.2 111.1h27.1v45c0 4.4 3.5 7.9 7.9 7.9h118.8c4.4 0 7.9-3.5 7.9-7.9v-45h27.2c61.3 0 111.1-49.9 111.1-111.1V213c0-18.4-15-33.3-33.3-33.3zM349.4 39.6c0-13.1 10.7-23.7 23.7-23.7h2.6c13.1 0 23.7 10.7 23.7 23.7v140.1h-50.1V39.6zm-248.9 0c0-13.1 10.7-23.7 23.7-23.7h2.6c13.1 0 23.7 10.7 23.7 23.7v140.1h-50.1V39.6zm201 456.6h-103v-37.1h102.9v37.1zm138.3-148.3c0 52.6-42.8 95.3-95.3 95.3H155.6c-52.6 0-95.3-42.8-95.3-95.3V213c0-9.7 7.9-17.5 17.5-17.5H422.2c9.7 0 17.5 7.9 17.5 17.5v134.9z"/><ellipse transform="rotate(-9.213 250.001 314.466)" class="st0" cx="250" cy="314.5" rx="67.3" ry="67.3"/></svg>