<svg id="Capa_1" xmlns="http://www.w3.org/2000/svg" viewBox="0 0 512 512"><style>.st1{fill:#d80027}.st2{fill:#dc365f}.st3{fill:#3f093b}</style><path d="M147 17.6c4.1 0 7.5 3.4 7.5 7.5s-3.4 7.5-7.5 7.5H93.7l-9.9 7.1h247.5c14.8 0 28.7 3.9 40.7 10.7h29.8V79c7.9 12.7 12.5 27.6 12.5 43.6v360.6l7.1-8.8v-86.2c0-4.1 3.4-7.5 7.5-7.5s7.5 3.4 7.5 7.5v67.6l7.6-9.4V99.6c0-19.1-10.1-40.6-27.1-57.6s-38.5-27.1-57.5-27.1H346c-.3 0-.6 0-.9-.1h-33c-.3 0-.6.1-.9.1h-193l-3.6 2.6H147z" fill="none"/><path class="st1" d="M359.4 0H346c-.3 0-.6 0-.9.1h17.1c-1-.1-1.9-.1-2.8-.1zM364.6.1h-2.4c.8 0 1.6.1 2.4.1V.1z"/><path class="st2" d="M154.5 25.1c0-4.1-3.4-7.5-7.5-7.5h-32.4l-20.9 15H147c4.1 0 7.5-3.3 7.5-7.5z"/><path class="st3" d="M114.6.1l-.2-.9L68.8 32l42.6-30.6c1-.7 2.1-1.1 3.2-1.3zM114.6 17.6l3.6-2.6-3.6 2.6z"/><path class="st3" d="M83.8 39.7l9.9-7.1 20.9-15 3.6-2.6L114.5.1c-1.1.2-2.2.6-3.1 1.3L68.8 32l-10.2 7.3 25.2.4z"/><path class="st2" d="M428.9 380.8c-4.1 0-7.5 3.4-7.5 7.5v86.2l-7.1 8.8 22.1-27.4v-67.6c0-4.2-3.4-7.5-7.5-7.5z"/><path class="st3" d="M414.3 483.3V122.7c0-16-4.6-31-12.5-43.6v424.1H61.5V50.5h310.6c-12-6.8-25.9-10.7-40.7-10.7H83.8l-25.2-.4L68.8 32l-12.7 9.1c-1.9 1.4-3.1 3.7-3.1 6.1v457.3c0 4.1 3.4 7.5 7.5 7.5h346.3c2.2 0 4.4-1 5.8-2.8l44.7-55.3c.1-.2.2-.3.3-.5l-43.7 53.9.4-24z"/><path class="st3" d="M459 99.6c0-23.3-11.5-48.1-31.5-68.1l5.4 5.4-5.5-5.5c-10-10-5-5 0 0C409 13 386.3 1.8 364.6.2c-.8-.1-1.6-.1-2.4-.1H312c-.3 0-.6-.1-.9-.1H115.8c-.4 0-.8 0-1.2.1l3.7 14.9h192.8c.3 0 .6 0 .9-.1h33c.3 0 .6.1.9.1h13.4c19.1 0 40.6 10.1 57.5 27.1 17 17 27.1 38.5 27.1 57.6v346.9l13.7 6.8c.8-1.2 1.3-2.7 1.3-4.1V99.6zM457.7 453.3c0 .1 0 .1 0 0zM436.4 455.9l7.6-9.4-7.6 9.4z"/><path class="st3" d="M436.4 455.9l-22.1 27.4-.4 24 43.7-53.9s0-.1.1-.1l-13.7-6.8-7.6 9.4z"/><path class="st2" d="M331.3 54.7H68V497h331.3v-11.2H228.4v-360h170.9v-3.1c0-37.5-30.5-68-68-68z"/><path class="st2" d="M228.4 485.8h170.9v-360H228.4v360zm153.2-310.3s4.8 4.3 0 0zM381.6 175.5c4.8 4.3 0 0 0 0z"/><path class="st3" d="M372.1 50.5H61.5v452.7h340.3V79c-7.3-11.8-17.6-21.7-29.7-28.5zm27.2 75.3V497H68V285.5 252.9 54.7h263.3c37.5 0 67.9 30.5 67.9 67.9l.1 3.2z"/></svg>