<svg id="Capa_1" xmlns="http://www.w3.org/2000/svg" viewBox="0 0 512 512"><style>.st1{fill:#3f093b}</style><path fill="#dc365f" d="M96 95.3h304V386H96z"/><circle class="st1" cx="188" cy="212.5" r="21.4"/><circle class="st1" cx="323.9" cy="299.4" r="21.4"/><path class="st1" d="M500.4 284.3l-7.8-10.6c-8.4-11.5-8.6-27.2-.3-38.9l7.6-10.7c11.5-16.4 6.2-39.1-11.5-48.7l-11.5-6.2c-12.6-6.7-19.5-20.8-17.1-34.9l2.2-12.9c3.4-19.7-11.4-38-31.5-38.8l-13.2-.6c-14.3-.6-26.6-10.3-30.6-24L383 45.4c-5.6-19.3-26.8-29.3-45.2-21.3l-12.1 5.1c-13.1 5.7-28.4 2.3-38-8.4L279 11c-13.3-14.9-36.7-14.8-49.9.4l-8.6 9.9c-9.4 10.8-24.7 14.4-37.9 8.9l-12.2-5c-18.6-7.7-39.6 2.7-44.9 22L122.1 60c-3.8 13.8-15.9 23.7-30.2 24.4l-13.1.7c-20 1.2-34.5 19.6-30.8 39.3l2.4 12.9c2.6 14.1-4.1 28.2-16.6 35.1l-11.4 6.4c-17.5 9.8-22.6 32.6-10.7 48.8l7.8 10.6c8.4 11.5 8.6 27.2.3 38.9l-7.6 10.7C.7 304.2 6 326.9 23.7 336.5l11.5 6.2c12.6 6.7 19.5 20.8 17.1 34.9l-2.2 12.9c-3.4 19.7 11.4 38 31.5 38.8l13.1.5c14.3.6 26.6 10.3 30.6 24l3.7 12.6c5.6 19.3 26.8 29.3 45.2 21.3l12.1-5.1c13.1-5.7 28.4-2.3 38 8.4l8.7 9.8c13.4 14.9 36.8 14.8 49.9-.4l8.6-9.9c9.4-10.8 24.7-14.4 37.9-8.9l12.2 5c18.6 7.7 39.6-2.7 44.9-22l3.5-12.7c3.8-13.8 15.9-23.7 30.2-24.4l13.1-.7c20-1.2 34.5-19.6 30.8-39.3l-2.4-12.9c-2.6-14.1 4.1-28.2 16.6-35.1l11.4-6.4c17.5-9.7 22.5-32.6 10.7-48.8zm-364.2-71.8c0-28.5 23.1-51.6 51.6-51.6s51.6 23.1 51.6 51.6-23.1 51.6-51.6 51.6-51.6-23.2-51.6-51.6zm61.6 133.1c-4.4 5.4-12.4 6.1-17.7 1.7-5.4-4.4-6.1-12.4-1.7-17.7l135.4-163.1c4.4-5.4 12.4-6.1 17.7-1.7s6.1 12.4 1.7 17.7L197.8 345.6zm126.1 5.4c-28.5 0-51.6-23.1-51.6-51.6s23.1-51.6 51.6-51.6 51.6 23.1 51.6 51.6-23 51.6-51.6 51.6z"/></svg>