<?xml version="1.0" encoding="UTF-8" standalone="no"?>
<!-- Created with Inkscape (http://www.inkscape.org/) -->

<svg
   xmlns:dc="http://purl.org/dc/elements/1.1/"
   xmlns:cc="http://creativecommons.org/ns#"
   xmlns:rdf="http://www.w3.org/1999/02/22-rdf-syntax-ns#"
   xmlns:svg="http://www.w3.org/2000/svg"
   xmlns="http://www.w3.org/2000/svg"
   xmlns:sodipodi="http://sodipodi.sourceforge.net/DTD/sodipodi-0.dtd"
   xmlns:inkscape="http://www.inkscape.org/namespaces/inkscape"
   width="52.752998mm"
   height="66.635002mm"
   viewBox="0 0 52.753 66.635"
   version="1.1"
   id="svg1139"
   inkscape:version="0.92.3 (2405546, 2018-03-11)"
   sodipodi:docname="cutom form 2.svg">
  <defs
     id="defs1133" />
  <sodipodi:namedview
     id="base"
     pagecolor="#ffffff"
     bordercolor="#666666"
     borderopacity="1.0"
     inkscape:pageopacity="0.0"
     inkscape:pageshadow="2"
     inkscape:zoom="2.8"
     inkscape:cx="88.599784"
     inkscape:cy="80.144247"
     inkscape:document-units="mm"
     inkscape:current-layer="layer1"
     showgrid="false"
     showborder="true"
     units="mm"
     inkscape:pagecheckerboard="true"
     inkscape:window-width="1920"
     inkscape:window-height="1017"
     inkscape:window-x="-8"
     inkscape:window-y="-8"
     inkscape:window-maximized="1" />
  <metadata
     id="metadata1136">
    <rdf:RDF>
      <cc:Work
         rdf:about="">
        <dc:format>image/svg+xml</dc:format>
        <dc:type
           rdf:resource="http://purl.org/dc/dcmitype/StillImage" />
        <dc:title></dc:title>
      </cc:Work>
    </rdf:RDF>
  </metadata>
  <g
     inkscape:label="Layer 1"
     inkscape:groupmode="layer"
     id="layer1"
     transform="translate(0,-230.365)">
    <g
       id="g1131"
       transform="matrix(0.49189333,0,0,0.49189333,-62.512198,196.27845)">
      <path
         style="opacity:1;fill:#f1e3f1;fill-opacity:1;stroke:none;stroke-width:5.29166651;stroke-linecap:round;stroke-miterlimit:4;stroke-dasharray:none;stroke-dashoffset:0;stroke-opacity:1"
         d="m 133.49185,71.424514 75.12129,0.534539 c 1.99372,0.01419 24.18263,23.710615 24.17862,24.113688 l -1.06121,106.682179 c -0.004,0.40307 -1.60513,0.73952 -3.59887,0.7276 l -94.82882,-0.56696 c -1.99373,-0.0119 -3.59944,-0.32452 -3.59886,-0.72761 l 0.18899,-130.035831 c 5.8e-4,-0.403093 1.60514,-0.741791 3.59886,-0.727605 z"
         id="rect1027"
         inkscape:connector-curvature="0"
         sodipodi:nodetypes="sssssssss" />
      <g
         transform="matrix(0.26458333,0,0,0.26458333,112.93942,69.382744)"
         id="g827"
         style="fill:#3f093b;fill-opacity:1">
        <g
           id="g825"
           style="fill:#3f093b;fill-opacity:1">
          <rect
             id="rect823"
             height="21.333"
             width="106.667"
             y="64"
             x="117.333"
             style="fill:#3f093b;fill-opacity:1" />
        </g>
      </g>
      <g
         transform="matrix(0.26458333,0,0,0.26458333,112.93942,69.382744)"
         id="g833"
         style="fill:#3f093b;fill-opacity:1">
        <g
           id="g831"
           style="fill:#3f093b;fill-opacity:1">
          <rect
             id="rect829"
             height="21.333"
             width="21.333"
             y="106.667"
             x="117.333"
             style="fill:#3f093b;fill-opacity:1" />
        </g>
      </g>
      <g
         transform="matrix(0.26458333,0,0,0.26458333,112.93942,69.382744)"
         id="g839"
         style="fill:#3f093b;fill-opacity:1">
        <g
           id="g837"
           style="fill:#3f093b;fill-opacity:1">
          <rect
             id="rect835"
             height="21.333"
             width="21.333"
             y="106.667"
             x="160"
             style="fill:#3f093b;fill-opacity:1" />
        </g>
      </g>
      <g
         transform="matrix(0.26458333,0,0,0.26458333,112.93942,69.382744)"
         style="fill:#3f093b;fill-opacity:1"
         id="g843">
        <path
           style="fill:#3f093b;fill-opacity:1"
           inkscape:connector-curvature="0"
           d="M 455.541,88.459 370.208,3.125 C 368.208,1.125 365.495,0 362.667,0 H 85.333 c -17.673,0 -32,14.327 -32,32 v 448 c 0,17.673 14.327,32 32,32 h 341.333 c 17.673,0 32,-14.327 32,-32 V 96 c 0,-2.829 -1.124,-5.541 -3.125,-7.541 z M 437.333,480 c 0,5.891 -4.776,10.667 -10.667,10.667 H 85.333 c -5.891,0 -10.667,-4.776 -10.667,-10.667 V 32 c 0,-5.891 4.776,-10.667 10.667,-10.667 H 358.25 l 79.083,79.083 V 480 Z"
           id="path841" />
      </g>
      <g
         transform="matrix(0.26458333,0,0,0.26458333,112.93942,69.382744)"
         id="g851"
         style="fill:#3f093b;fill-opacity:1">
        <g
           id="g849"
           style="fill:#3f093b;fill-opacity:1">
          <path
             id="path847"
             d="m 384,85.333 c -5.891,0 -10.667,-4.776 -10.667,-10.667 v -64 H 352 v 64 c 0,17.673 14.327,32 32,32 h 21.333 V 85.333 Z"
             inkscape:connector-curvature="0"
             style="fill:#3f093b;fill-opacity:1" />
        </g>
      </g>
      <g
         transform="matrix(0.26458333,0,0,0.26458333,112.93942,69.382744)"
         id="g857"
         style="fill:#3f093b;fill-opacity:1">
        <g
           id="g855"
           style="fill:#3f093b;fill-opacity:1">
          <rect
             id="rect853"
             height="21.333"
             width="21.333"
             y="362.66699"
             x="373.33301"
             style="fill:#3f093b;fill-opacity:1" />
        </g>
      </g>
      <g
         transform="matrix(0.26458333,0,0,0.26458333,112.93942,69.382744)"
         id="g863"
         style="fill:#3f093b;fill-opacity:1">
        <g
           id="g861"
           style="fill:#3f093b;fill-opacity:1">
          <rect
             id="rect859"
             height="21.333"
             width="21.333"
             y="362.66699"
             x="330.66699"
             style="fill:#3f093b;fill-opacity:1" />
        </g>
      </g>
      <g
         transform="matrix(0.26458333,0,0,0.26458333,112.93942,69.382744)"
         id="g869"
         style="fill:#3f093b;fill-opacity:1">
        <g
           id="g867"
           style="fill:#3f093b;fill-opacity:1">
          <rect
             id="rect865"
             height="21.333"
             width="170.66701"
             y="362.66699"
             x="117.333"
             style="fill:#3f093b;fill-opacity:1" />
        </g>
      </g>
      <g
         transform="matrix(0.26458333,0,0,0.26458333,112.93942,69.382744)"
         id="g875"
         style="fill:#3f093b;fill-opacity:1">
        <g
           id="g873"
           style="fill:#3f093b;fill-opacity:1">
          <rect
             id="rect871"
             height="21.333"
             width="277.33301"
             y="416"
             x="117.333"
             style="fill:#3f093b;fill-opacity:1" />
        </g>
      </g>
      <g
         transform="matrix(0.26458333,0,0,0.26458333,112.93942,69.382744)"
         style="fill:#dc385f;fill-opacity:1"
         id="g879">
        <path
           style="fill:#dc385f;fill-opacity:1"
           inkscape:connector-curvature="0"
           d="M 373.333,160 H 138.667 c -11.782,0 -21.333,9.551 -21.333,21.333 v 128 c 0,11.782 9.551,21.333 21.333,21.333 h 234.667 c 11.782,0 21.333,-9.551 21.333,-21.333 v -128 C 394.667,169.551 385.115,160 373.333,160 Z m 0,149.333 H 138.667 v -128 h 234.667 v 128 z"
           id="path877" />
      </g>
    </g>
  </g>
</svg>
