<svg id="Capa_1" xmlns="http://www.w3.org/2000/svg" viewBox="0 0 512 512"><style>.st0{fill:#dc365f}</style><path class="st0" d="M501.4 112.7H202.9c-9.7 0-15.3 7.5-12.4 16.8l47.2 138.4c2.3 7.5 10.6 13.5 18.4 13.5h195.7c7.8 0 16-6 18.4-13.5l41.2-141.6c2.3-7.5-2.1-13.6-10-13.6z"/><circle class="st0" cx="229.9" cy="440.8" r="44.7"/><circle class="st0" cx="418.9" cy="441.4" r="44.7"/><path d="M472.5 326.9H211.3L106.7 26H25.3C11.3 26 0 37.3 0 51.3s11.3 25.3 25.3 25.3h45.5l104.6 300.9h297.2c14 0 25.3-11.3 25.3-25.3-.1-14-11.4-25.3-25.4-25.3z" fill="#3f093b"/></svg>