<svg id="Capa_1" xmlns="http://www.w3.org/2000/svg" viewBox="0 0 512 512"><style>.st0{fill:#3e0c3a}.st1{fill:#dc375f}</style><path class="st0" d="M288 213.3c-8.9 0-16.4-3.1-22.7-9.3-6.2-6.2-9.3-13.8-9.3-22.7V0H74.7C65.8 0 58.2 3.1 52 9.3c-6.2 6.2-9.3 13.8-9.3 22.7v448c0 8.9 3.1 16.4 9.3 22.7 6.2 6.2 13.8 9.3 22.7 9.3h362.7c8.9 0 16.4-3.1 22.7-9.3 6.2-6.2 9.3-13.8 9.3-22.7V213.3H288zM384 416c0 3.1-1 5.7-3 7.7s-4.6 3-7.7 3H138.7c-3.1 0-5.7-1-7.7-3s-3-4.6-3-7.7v-21.3c0-3.1 1-5.7 3-7.7s4.6-3 7.7-3h234.7c3.1 0 5.7 1 7.7 3s3 4.6 3 7.7V416zm0-85.3c0 3.1-1 5.7-3 7.7s-4.6 3-7.7 3H138.7c-3.1 0-5.7-1-7.7-3s-3-4.6-3-7.7v-21.3c0-3.1 1-5.7 3-7.7s4.6-3 7.7-3h234.7c3.1 0 5.7 1 7.7 3s3 4.6 3 7.7v21.3z"/><path class="st0" d="M446.7 126.7l-104-104c-11.1-11.1-25.8-18.3-44-21.7v169.7h169.7c-3.4-18.3-10.6-32.9-21.7-44z"/><g><path class="st1" d="M138.7 341.3h234.7c3.1 0 5.7-1 7.7-3s3-4.6 3-7.7v-21.3c0-3.1-1-5.7-3-7.7s-4.6-3-7.7-3H138.7c-3.1 0-5.7 1-7.7 3s-3 4.6-3 7.7v21.3c0 3.1 1 5.7 3 7.7s4.6 3 7.7 3zM128 416c0 3.1 1 5.7 3 7.7s4.6 3 7.7 3h234.7c3.1 0 5.7-1 7.7-3s3-4.6 3-7.7v-21.3c0-3.1-1-5.7-3-7.7s-4.6-3-7.7-3H138.7c-3.1 0-5.7 1-7.7 3s-3 4.6-3 7.7V416z"/></g></svg>