<svg id="Capa_1" xmlns="http://www.w3.org/2000/svg" viewBox="0 0 512 512"><style>.st0{fill:#dc365f}.st3{fill:#3f093b}</style><path class="st0" d="M35 395h56v67H35z"/><g id="Layer_5_58_"><path class="st0" d="M376.6 32.5c-74.8 0-135.4 60.6-135.4 135.4 0 74.8 60.6 135.4 135.4 135.4 74.8 0 135.4-60.6 135.4-135.4 0-74.8-60.6-135.4-135.4-135.4zm0 239.4c-57.4 0-104-46.6-104-104s46.6-104 104-104 104 46.6 104 104-46.5 104-104 104z"/><text transform="translate(306 215.213)" class="st0" font-size="118.348" font-family="Lato-Bold">Rp</text><g><path class="st3" d="M484.5 368.9c-28.8 15.9-68.4 30.6-107.9 36.8-35.1 5.5-101.2-7.8-101.2-23.5 0-5.9 58 14.7 93 5.3 26.9-7.2 23.1-32.3 8.4-35.6-14.5-3.3-99.7-34.5-136.1-35.6-17.1-.5-59.5 6-79.9 9.3-7 1.1-11.4 1-11.9 7.7-2 31.2-6.1 95-8.2 128.3 0 .7.9 10.2 8.7 3.5 8.6-7.3 20.5-15.4 31.6-12.9 17.4 3.9 168 31.5 188.8 26.7 29.7-6.9 113.8-56.8 130-72.3 25.1-23.9 5.6-49.3-15.3-37.7zM107.4 324.3l-78.9-3.9c-6.1-.3-12.3 4.3-13.8 10.2L.3 460.9c-1.5 5.9 2.2 10.9 8.3 11.2H96c6.1.2 11.5-4.5 11.9-10.6l9.6-125.5c.6-6.2-4-11.4-10.1-11.7zM61 454.8c-12 0-21.8-9.8-21.8-21.8S49 411.2 61 411.2 82.8 421 82.8 433 73 454.8 61 454.8z"/></g></g></svg>