<svg id="Capa_1" xmlns="http://www.w3.org/2000/svg" viewBox="0 0 59 59"><style>.st2{fill:#dbd0dd}</style><path d="M39.5 15c0 2.2 1.8 4 4 4s4-1.8 4-4c0-.7-.2-1.4-.6-2l-2.7 2.7c-.2.2-.4.3-.7.3s-.5-.1-.7-.3c-.4-.4-.4-1 0-1.4l2.7-2.7c-.6-.4-1.3-.6-2-.6-2.2 0-4 1.8-4 4z" fill="none"/><path d="M47.5 15c0 2.2-1.8 4-4 4s-4-1.8-4-4 1.8-4 4-4c.7 0 1.4.2 2 .6L52.1 5H30.2l-29 29.2c-1 1-1 2.6 0 3.6l20.5 20.5c1 1 2.6 1 3.6 0l28.2-29V6.4L46.9 13c.4.6.6 1.3.6 2z" fill="#3f093b"/><path class="st2" d="M42.8 15.7c.2.2.5.3.7.3s.5-.1.7-.3l2.7-2.7c-.3-.6-.8-1.1-1.4-1.4l-2.7 2.7c-.4.4-.4 1 0 1.4zM58.2.3c-.4-.4-1-.4-1.4 0L52.1 5h1.4v1.4l4.7-4.7c.4-.4.4-1 0-1.4z"/><path class="st2" d="M52.1 5l-6.6 6.6c.6.3 1.1.8 1.4 1.4l6.6-6.6V5h-1.4z"/><path d="M43.5 7c-4.4 0-8 3.6-8 8s3.6 8 8 8 8-3.6 8-8-3.6-8-8-8zm0 12c-2.2 0-4-1.8-4-4s1.8-4 4-4 4 1.8 4 4-1.8 4-4 4z" fill="#dc365f"/></svg>