<svg xmlns="http://www.w3.org/2000/svg" viewBox="0 0 512 512"><path d="M33.6 187.6c2.7 9.2 6.4 18.1 11.1 26.5l-13.5 17c-4.4 5.5-3.9 13.5 1 18.5l23.2 23.2c5 5 12.9 5.4 18.5 1l16.9-13.3c8.7 5 17.9 8.9 27.5 11.6l2.5 21.7c.8 7 6.8 12.3 13.8 12.3h32.8c7 0 13-5.3 13.8-12.3l2.4-20.9c10.3-2.7 20.2-6.7 29.5-11.9l16.3 12.9c5.5 4.4 13.5 3.9 18.5-1l23.2-23.2c5-5 5.4-12.9 1-18.5L259.5 215c5.3-9.1 9.4-18.8 12.1-29l19.6-2.3c7-.8 12.3-6.8 12.3-13.8v-32.8c0-7-5.3-13-12.3-13.8l-19.3-2.3c-2.6-10.1-6.6-19.7-11.6-28.7l11.9-15c4.4-5.5 3.9-13.5-1-18.5l-23.1-23.1c-5-5-12.9-5.4-18.5-1L215 46.2c-9.4-5.5-19.6-9.8-30.2-12.6l-2.2-18.8c-.8-7-6.8-12.3-13.8-12.3H136c-7 0-13 5.3-13.8 12.3L120 33.7c-10.9 2.9-21.3 7.3-30.9 13.1L74 34.8c-5.5-4.4-13.5-3.9-18.5 1L32.4 59.1c-5 5-5.4 12.9-1 18.5l12.6 16c-5.1 9.1-8.9 18.8-11.4 28.9l-20.2 2.3c-7 .8-12.3 6.8-12.3 13.8v32.8c0 7 5.3 13 12.3 13.8l21.2 2.4zm118.8-88.7c29.9 0 54.2 24.3 54.2 54.2s-24.3 54.2-54.2 54.2c-29.9 0-54.2-24.3-54.2-54.2s24.3-54.2 54.2-54.2z" fill="#3f093b"/><path d="M476.6 195.7l-17.3-14.6c-5.3-4.5-13.2-4.3-18.2.5l-9.6 9c-8.1-3.9-16.6-6.6-25.5-8.2l-2.7-13.2c-1.4-6.8-7.7-11.5-14.6-11l-22.6 1.9c-6.9.6-12.4 6.3-12.6 13.2l-.4 13.4c-8.7 3.1-16.9 7.4-24.3 12.8l-11.4-7.6c-5.8-3.8-13.6-2.7-18.1 2.6l-14.6 17.4c-4.5 5.3-4.3 13.2.5 18.2l10 10.7c-3.5 7.8-5.9 16-7.4 24.4l-14.3 2.9c-6.8 1.4-11.5 7.7-11 14.6l1.9 22.6c.6 6.9 6.3 12.4 13.2 12.6l15.4.5c2.8 7.4 6.5 14.3 10.9 20.9l-8.6 13c-3.8 5.8-2.7 13.6 2.6 18.1l17.3 14.6c5.3 4.5 13.2 4.3 18.2-.5l11.3-10.6c7.4 3.5 15.2 6 23.2 7.6L371 397c1.4 6.8 7.7 11.5 14.6 11l22.6-1.9c6.9-.6 12.4-6.3 12.6-13.2l.5-15.2c8.2-2.9 16-6.9 23.2-11.8l12.5 8.2c5.8 3.8 13.6 2.7 18.1-2.6l14.6-17.3c4.5-5.3 4.3-13.2-.5-18.2l-10.1-10.7c3.7-7.8 6.4-16 7.9-24.5l13.7-2.8c6.8-1.4 11.5-7.7 11-14.6l-1.9-22.6c-.6-6.9-6.3-12.4-13.2-12.6l-13.8-.4c-2.9-8-6.7-15.6-11.5-22.6l7.5-11.3c4.2-5.9 3.1-13.7-2.2-18.2zm-85.1 130.5c-24.4 2.1-45.9-16.1-48-40.5-2.1-24.4 16.1-45.9 40.5-48 24.4-2.1 45.9 16.1 48 40.5 2.1 24.4-16.1 45.9-40.5 48z" fill="#dc365f"/><path d="M112.6 386.9c-6.9.7-12.2 6.5-12.3 13.5l-.2 13.9c-.1 7 5.1 12.9 12 13.8l10.2 1.3c1.7 6.2 4.1 12.1 7.3 17.7l-6.6 8.1c-4.4 5.4-4.1 13.2.8 18.2l9.7 9.9c4.9 5 12.7 5.5 18.2 1.3l8.2-6.3c5.8 3.4 11.9 6.1 18.2 8l1.1 10.5c.7 6.9 6.5 12.2 13.5 12.3l13.9.2c7 .1 12.9-5.1 13.8-12l1.3-10c6.9-1.7 13.5-4.3 19.8-7.7l7.7 6.2c5.4 4.4 13.2 4.1 18.2-.8l9.9-9.7c5-4.9 5.5-12.7 1.3-18.2l-5.9-7.6c3.6-6 6.4-12.5 8.3-19.2l9.1-.9c6.9-.7 12.2-6.5 12.3-13.5l.2-13.9c.1-7-5.1-12.9-12-13.8l-8.9-1.2c-1.7-6.7-4.2-13.2-7.5-19.2l5.5-6.8c4.4-5.4 4.1-13.2-.8-18.2l-9.7-9.9c-4.9-5-12.7-5.5-18.2-1.3l-6.6 5.1c-6.3-3.8-13-6.7-20-8.7l-.9-8.6c-.7-6.9-6.5-12.2-13.5-12.3l-13.9-.2c-7-.1-12.9 5.1-13.8 12l-1.1 8.6c-7.2 1.9-14.2 4.7-20.7 8.5l-6.9-5.6c-5.4-4.4-13.2-4.1-18.2.8l-10 9.8c-5 4.9-5.5 12.7-1.3 18.2l5.9 7.6c-3.4 6-6.1 12.5-7.9 19.2l-9.5.9zm89.7-15.7c19.9.2 35.9 16.6 35.7 36.6-.2 19.9-16.6 35.9-36.6 35.7-19.9-.2-35.9-16.6-35.7-36.6.2-19.9 16.7-35.9 36.6-35.7z" fill="#dbd0dd"/></svg>