<svg xmlns="http://www.w3.org/2000/svg" viewBox="0 0 225.33 192.12"><defs><style>.cls-1{fill:#3f0d3b;}.cls-2{fill:#dc385f;}</style></defs><title>Asset 1</title><g id="Layer_2" data-name="Layer 2"><g id="Layer_1-2" data-name="Layer 1"><g id="layer1"><g id="g1509"><path id="path1282" class="cls-1" d="M66.62.11C51.35.11,38.3,11.89,33,28.56a172.32,172.32,0,0,0-2.52,18.53C31,65.23,40.17,80.6,53,87.09l-1.08,5.77C42.49,105.5.06,105.5,0,153.77H47c9.28-12.12,22.15-18.17,31.43-22.52,1.77-.83,3.82-1.8,5.67-2.74C72.59,118.12,65.58,101.77,65.58,84c0-25.83,14.82-47.56,34.86-53.93C96.63,16.67,87.9,6.17,77,2A29.68,29.68,0,0,0,66.62.11Zm41.19,108a1.73,1.73,0,0,0-.13.5c0-.14.07-.29.11-.44s0,0,0-.06Zm-16.62,12,.29.4h0l-.29-.4Zm-22,33.06,0,0c0,.2.06.4.1.6h0a2.12,2.12,0,0,0-.09-.62Zm-1.45.36c-.08.08-.14.18-.22.26h.05C67.59,153.78,67.65,153.7,67.71,153.61Z"/><path id="path1280" class="cls-1" d="M158.72,0h0c-15.48,0-28.64,12.14-33.82,29.16-.06.32-.11.64-.17.95,20,6.42,34.73,28.11,34.73,53.88,0,17.74-7,34.12-18.52,44.52,1.81.93,3.84,1.88,5.66,2.74,9.22,4.32,22,10.33,31.23,22.27h47.5c-.14-47.32-41.09-48.12-51.41-60.14l-1.23-6.55,0,0,0-.22c13-6.8,22.22-22.84,22.25-41.57-.07-24.87-16.26-45-36.22-45ZM122.79,43.83a.49.49,0,0,0,0,.12l.27.15c.06-.08-.08-.18-.26-.27Zm.52.45.1,0,.09,0a.31.31,0,0,0-.12-.06s-.12,0-.07,0Zm11.86,61,0,.06h0l0-.06Z"/><path id="path1056" class="cls-2" d="M111.79,38.35c-15.27,0-28.32,11.79-33.65,28.45a172.66,172.66,0,0,0-2.52,18.53c.58,18.14,9.72,33.51,22.54,40l-1.08,5.76c-9.43,12.65-51.91,12.64-51.91,61H178.41c0-47.56-41.07-48.35-51.42-60.38l-1.23-6.56C138.83,118.36,148,102.27,148,83.51c0-24.94-16.23-45.16-36.23-45.16Z"/></g></g></g></g></svg>