<svg id="Isolation_Mode" data-name="Isolation Mode" xmlns="http://www.w3.org/2000/svg" viewBox="0 0 453.73 391.67"><defs><style>.cls-2{fill:#dc375f}</style></defs><path d="M626.86 522.94c0-9.07-1.6-11-10.89-12.58v-4.79-92a28.28 28.28 0 0 0-5.81-17.66q-21.53-28.44-43.16-56.85a19 19 0 0 0-16.25-8.06c-22 .14-44 0-66 0h-5.84v-31.91c0-7.71-2.78-10.56-10.52-10.61-12.83-.07-25.66 0-38.49 0h-11.4c-.46 6.43-.6 12.4-1.34 18.29-8.4 66.87-76.07 108.87-139.33 86.49-2.88-1-4.69-.78-6.93 1.46q-17 17-34.3 33.55a10.76 10.76 0 0 0-3.53 8.75c.14 22.82.08 45.65.08 68.47 0 1.76-.15 3.52-.22 5.21-8.83.6-11.74 2.57-11.85 8.27-.17 9.5-.15 19 0 28.49.06 4.6 3.14 8.16 7.68 8.3 9.3.29 18.61.08 27.36.08 2-7.67 2.9-15.29 6-21.91a63 63 0 0 1 13-18.58 55.21 55.21 0 0 1 18.82-11.73 65.4 65.4 0 0 1 22.44-3.45c12.52.1 23.64 5.06 33.14 13.27 12.81 11 18.8 25.42 19.71 42.24h112.11c.61-15.87 6.07-29.61 17.7-40.52 11.79-11.07 25.89-16.09 42-15.13a53.73 53.73 0 0 1 32.64 13.39c12.78 11.07 18.89 25.35 19.69 42.47 8.11 0 15.91.06 23.7 0 6.56-.08 9.71-3.27 9.79-9.93.05-7.69-.02-15.35 0-23.02zM500.22 409.51V362.2c11.83 0 23.79-.49 35.66.3 3.59.23 7.9 3.26 10.26 6.27 9.94 12.72 19.27 25.92 28.79 39a6.68 6.68 0 0 1 .52 1.79z" transform="translate(-173.14 -204.16)" fill="#3e0c3a"/><path class="cls-2" d="M268.29 373c50.21 25.74 98.62 2.42 119.66-30.74 22.32-35.18 17.14-82.87-12.72-111.91-31.15-30.35-77.67-34.83-113.23-10.8-17.57 11.87-29.76 28-35.89 48.33-8.4 27.85-3.61 53.84 12.71 78.54-1.62 1.34-3.14 2.39-4.43 3.67q-27.39 27.35-54.74 54.77c-9.13 9.19-8.56 22.45 1.1 30.29 8.28 6.71 19.38 5.93 27.53-2.18Q238.39 403 268.29 373zm45.19-136.32c31.45.86 57 27.1 56.24 57.8-.78 32.29-27.08 58.12-58.42 57.38-31.94-.76-57.7-27.15-56.88-58.3.85-32.75 26.84-57.78 59.06-56.89zM537.7 515.83a40 40 0 0 0-40.51 39.46c-.15 22 17.81 40.29 39.68 40.51a39.94 39.94 0 0 0 40.29-39.66 39.52 39.52 0 0 0-39.46-40.31zm-.6 53.11c-7.07-.06-13.35-6.61-13.06-13.64a13.16 13.16 0 0 1 13.89-12.61 12.66 12.66 0 0 1 12.36 13.42 13.07 13.07 0 0 1-13.19 12.83zM313.62 515.79a40.07 40.07 0 0 0-40.55 38.93c-.44 22.2 17.48 40.82 39.55 41.11A40.05 40.05 0 0 0 353 556.72c.37-22.67-16.84-40.54-39.38-40.93zm-.25 53.21A13.49 13.49 0 0 1 300 555.71a13 13 0 0 1 13.41-13 12.73 12.73 0 0 1 12.8 13A13.21 13.21 0 0 1 313.37 569z" transform="translate(-173.14 -204.16)"/></svg>